<svg
  xmlns="http://www.w3.org/2000/svg"
  width="1200"
  height="620"
  viewBox="0 0 1200 620"
  role="img"
  aria-label="Procedural map of one policy core serving six integration surfaces"
>
  <rect width="1200" height="620" rx="36" fill="#08111C" />
  <g fill="none" stroke="#72B7FF" stroke-width="8">
    <path d="M600 310 190 130" />
    <path d="M600 310 600 100" />
    <path d="M600 310 1010 130" />
    <path d="M600 310 190 490" />
    <path d="M600 310 600 520" />
    <path d="M600 310 1010 490" />
  </g>
  <rect x="420" y="238" width="360" height="144" rx="40" fill="#132238" stroke="#6EE7B7" stroke-width="8" />
  <text
    x="600"
    y="325"
    fill="#F5F7FA"
    font-family="Noto Sans, sans-serif"
    font-size="52"
    font-weight="700"
    text-anchor="middle"
  >
    Policy core
  </text>
  <g fill="#132238" stroke="#72B7FF" stroke-width="6">
    <rect x="70" y="60" width="240" height="100" rx="24" />
    <rect x="480" y="30" width="240" height="100" rx="24" />
    <rect x="890" y="60" width="240" height="100" rx="24" />
    <rect x="70" y="460" width="240" height="100" rx="24" />
    <rect x="480" y="490" width="240" height="100" rx="24" />
    <rect x="890" y="460" width="240" height="100" rx="24" />
  </g>
  <g
    fill="#F5F7FA"
    font-family="Noto Sans, sans-serif"
    font-size="50"
    font-weight="600"
    text-anchor="middle"
  >
    <text x="190" y="125">Editor</text>
    <text x="600" y="95">MCP</text>
    <text x="1010" y="125">Runner</text>
    <text x="190" y="525">Hooks</text>
    <text x="600" y="555">Pre-commit</text>
    <text x="1010" y="525">CI</text>
  </g>
</svg>
